<?xml version="1.0" encoding="utf-8"?>
<!-- Generator: Adobe Illustrator 22.1.0, SVG Export Plug-In . SVG Version: 6.00 Build 0)  -->
<svg version="1.1" id="Capa_1" xmlns="http://www.w3.org/2000/svg" xmlns:xlink="http://www.w3.org/1999/xlink" x="0px" y="0px"
	 viewBox="0 0 512 512" style="enable-background:new 0 0 512 512;" xml:space="preserve">
<style type="text/css">
	.st0{fill:#FFFFFF;}
</style>
<g>
	<path class="st0" d="M476.7,37.3l-2-2c-47.1-47.1-124.1-47.1-171.2,0L194.5,144.4c-47.1,47.1-47.1,124.1,0,171.2l2,2
		c3.9,3.9,8.1,7.5,12.4,10.7l39.9-39.9c-4.7-2.7-9.1-6-13.1-10l-2-2c-25.6-25.5-25.6-67.1,0-92.7L342.8,74.5
		c25.6-25.6,67.1-25.6,92.7,0l2,2c25.5,25.6,25.5,67.1,0,92.7l-49.3,49.3c8.6,21.2,12.6,43.7,12.3,66.2l76.3-76.3
		C523.8,161.4,523.8,84.4,476.7,37.3z M315.5,194.5c-3.9-3.9-8.1-7.5-12.4-10.7l-39.9,39.9c4.7,2.7,9.1,6,13.1,10l2,2
		c25.6,25.6,25.6,67.1,0,92.7L169.2,437.5c-25.6,25.6-67.1,25.6-92.7,0l-2-2c-25.5-25.6-25.5-67.1,0-92.7l49.3-49.3
		c-8.6-21.2-12.6-43.7-12.3-66.2l-76.3,76.3c-47.1,47.1-47.1,124.1,0,171.2l2,2c47.1,47.1,124.1,47.1,171.2,0l109.1-109.1
		c47.1-47.1,47.1-124.1,0-171.2L315.5,194.5z"/>
</g>
</svg>
