<?xml version="1.0" encoding="utf-8"?>
<!-- Generator: Adobe Illustrator 22.1.0, SVG Export Plug-In . SVG Version: 6.00 Build 0)  -->
<svg version="1.1" id="Capa_1" xmlns="http://www.w3.org/2000/svg" xmlns:xlink="http://www.w3.org/1999/xlink" x="0px" y="0px"
	 viewBox="0 0 440.1 440.1" style="enable-background:new 0 0 440.1 440.1;" xml:space="preserve">
<style type="text/css">
	.st0{fill:#FFFFFF;}
</style>
<g>
	<g>
		<path class="st0" d="M313.9,187.7L212.6,86.3c-3.1-4-7.8-6.4-12.9-6.3c-0.7,0-1.5,0.1-2.2,0.1H56c-8.8,0-16,7.4-16,16.3v328
			c0,8.8,7.2,15.7,16,15.7h248c8.8,0,16-6.9,16-15.7V203C320.9,197.2,318.6,191.3,313.9,187.7L313.9,187.7z M216,135l49.4,49.1H216
			L216,135L216,135z M288,408.1H72v-296h112v85.7c-0.8,5.1,0.9,10.4,4.6,14c0,0,0.1,0.1,0.1,0.1c0.1,0.1,0.1,0,0.2,0.1
			c3.6,3.5,8.7,5.1,13.7,4.1H288V408.1z"/>
		<path class="st0" d="M393.9,107.7L292.6,6.3c-3-3.9-7.9-6.4-12.8-6.3c-0.7,0-1.5,0.1-2.2,0.1H136c-4.2,0-8.4,1.9-11.3,4.8
			c-3,3-4.7,7.3-4.7,11.4v43.7h32v-28h112v65.6l38.7,38.4H368v192h-28v32h44c4.2,0,8.4-1.6,11.3-4.6c3-3,4.7-7,4.7-11.2V123
			C400.9,117.3,398.5,111.2,393.9,107.7z M296,104.1V55l49.4,49.1H296z"/>
	</g>
</g>
</svg>
