<?xml version="1.0" encoding="utf-8"?>
<!-- Generator: Adobe Illustrator 22.1.0, SVG Export Plug-In . SVG Version: 6.00 Build 0)  -->
<svg version="1.1" id="Layer_1" xmlns="http://www.w3.org/2000/svg" xmlns:xlink="http://www.w3.org/1999/xlink" x="0px" y="0px"
	 viewBox="0 0 488 488" style="enable-background:new 0 0 488 488;" xml:space="preserve">
<style type="text/css">
	.st0{fill:#FFFFFF;}
</style>
<g transform="translate(0 -540.36)">
	<g>
		<g>
			<path class="st0" d="M448.9,666.1c0-0.1-0.1-0.3-0.1-0.4c0-0.2-0.1-0.3-0.1-0.5c0-0.1-0.1-0.3-0.1-0.4c-0.1-0.2-0.1-0.3-0.2-0.5
				c0-0.1-0.1-0.3-0.1-0.4c-0.1-0.3-0.2-0.5-0.4-0.8c-0.1-0.1-0.1-0.2-0.2-0.3c-0.1-0.2-0.2-0.3-0.3-0.5c-0.1-0.1-0.1-0.2-0.2-0.3
				s-0.1-0.2-0.2-0.3l-90-117.4l-0.1-0.1c-0.2-0.2-0.3-0.4-0.5-0.6c-0.1-0.1-0.1-0.2-0.2-0.2c-0.2-0.3-0.5-0.5-0.8-0.7
				c0,0,0,0-0.1-0.1c-0.3-0.2-0.5-0.4-0.8-0.6c-0.1-0.1-0.2-0.1-0.3-0.2c-0.2-0.1-0.4-0.3-0.7-0.4c-0.1,0-0.2-0.1-0.3-0.1
				c-0.2-0.1-0.5-0.2-0.7-0.3c-0.1,0-0.2-0.1-0.3-0.1c-0.2-0.1-0.5-0.2-0.7-0.2c-0.1,0-0.2-0.1-0.3-0.1c-0.3-0.1-0.5-0.1-0.8-0.1
				c-0.1,0-0.2,0-0.3,0c-0.4,0-0.7-0.1-1.1-0.1H49c-5.5,0-10,4.5-10,10v468c0,5.5,4.5,10,10,10h390c5.5,0,10-4.5,10-10V667.8
				c0-0.2,0-0.5,0-0.8l0,0c0-0.1,0-0.2,0-0.3C449,666.5,448.9,666.3,448.9,666.1z M418.7,657.9h-59.5l-0.2-77.8L418.7,657.9z
				 M429,1008.5H59v-448h280l0.2,107.4c0,5.5,4.5,10,10,10H429V1008.5z"/>
			<path class="st0" d="M101.3,723.5c0,5.5,4.5,10,10,10h266.2c5.5,0,10-4.5,10-10s-4.5-10-10-10H111.3
				C105.8,713.5,101.3,718,101.3,723.5z"/>
			<path class="st0" d="M111.3,672.5h173.9l0,0c5.5,0,9.9-4.5,9.9-10s-4.5-10-10-10H111.3c-5.5,0-10,4.5-10,10
				S105.8,672.5,111.3,672.5z"/>
			<path class="st0" d="M111.3,794.5h266.2c5.5,0,10-4.5,10-10s-4.5-10-10-10H111.3c-5.5,0-10,4.5-10,10S105.8,794.5,111.3,794.5z"
				/>
			<path class="st0" d="M285.2,855.5c5.5,0,9.9-4.5,9.9-10s-4.5-10-10-10H111.3c-5.5,0-10,4.5-10,10s4.5,10,10,10H285.2L285.2,855.5
				z"/>
			<path class="st0" d="M370.9,868.3l-84.2,74.4l-24.3-32.5c-3.3-4.4-9.6-5.3-14-2s-5.3,9.6-2,14l30.8,41.2c1.7,2.3,4.2,3.7,7,4
				c0.3,0.1,0.7,0.1,1,0.1l0,0c2.4,0,4.7-0.9,6.6-2.6l92.3-81.6c4.2-3.6,4.6-10,0.9-14.1C381.4,865,375,864.6,370.9,868.3z"/>
		</g>
	</g>
</g>
</svg>
