<?xml version="1.0" encoding="utf-8"?>
<!-- Generator: Adobe Illustrator 22.1.0, SVG Export Plug-In . SVG Version: 6.00 Build 0)  -->
<svg version="1.1" id="Capa_1" xmlns="http://www.w3.org/2000/svg" xmlns:xlink="http://www.w3.org/1999/xlink" x="0px" y="0px"
	 viewBox="0 0 284.9 284.9" style="enable-background:new 0 0 284.9 284.9;" xml:space="preserve">
<g>
	<path d="M142.5,110.5l112.2,112.2c1.9,1.9,4.1,2.9,6.6,2.9s4.7-1,6.6-2.9l14.3-14.3c1.9-1.9,2.9-4.1,2.9-6.6c0-2.5-1-4.7-2.9-6.6
		l-133-133c-1.9-1.9-4.1-2.9-6.6-2.9c-2.5,0-4.7,0.9-6.6,2.9l-133,133C1,197.2,0,199.4,0,201.9c0,2.5,1,4.7,2.9,6.6l14.3,14.3
		c1.9,1.9,4.1,2.9,6.6,2.9c2.5,0,4.7-0.9,6.6-2.9L142.5,110.5z"/>
</g>
</svg>
